<?xml version="1.0" standalone="no"?>
<!DOCTYPE svg PUBLIC "-//W3C//DTD SVG 1.1//EN" "http://www.w3.org/Graphics/SVG/1.1/DTD/svg11.dtd" >
<svg xmlns="http://www.w3.org/2000/svg">
<metadata></metadata>
<defs>
<font id="proximasansregularmedium" horiz-adv-x="1193" >
<font-face units-per-em="2048" ascent="1624" descent="-424" />
<missing-glyph horiz-adv-x="425" />
<glyph horiz-adv-x="2048" />
<glyph horiz-adv-x="2048" />
<glyph unicode="&#xd;" horiz-adv-x="2048" />
<glyph unicode=" "  horiz-adv-x="425" />
<glyph unicode="&#x09;" horiz-adv-x="425" />
<glyph unicode="&#xa0;" horiz-adv-x="425" />
<glyph unicode="!" horiz-adv-x="450" d="M332 1366l-41 -991h-131l-41 991h213zM358 117q0 -55 -39 -94t-94 -39t-94 39t-39 94q0 54 39 93.5t94 39.5t94 -39.5t39 -93.5z" />
<glyph unicode="&#x22;" horiz-adv-x="808" d="M717 1255q0 -10 -4 -30l-76 -328l-107 -2l-75 330q-4 20 -4 30q0 56 39 95t94 39t94 -39t39 -95zM358 1255q0 -10 -4 -30l-75 -328l-107 -2l-76 330q-4 20 -4 30q0 56 39 95t94 39t94 -39t39 -95z" />
<glyph unicode="#" d="M1147 987l-35 -113h-225q-28 -81 -61.5 -182t-50 -150.5t-17.5 -49.5h231l-37 -111h-229l-129 -381h-113l129 381h-225l-129 -381h-113l129 381h-217l33 111h221l127 382h-221l35 113h225l125 379h113l-125 -379h225l125 379h113q-62 -182 -125 -379h221zM774 874h-225 l-127 -382h223q63 183 129 382z" />
<glyph unicode="$" d="M1110 379q0 -82 -28 -150.5t-74.5 -114.5t-108.5 -79.5t-126.5 -50t-133.5 -21.5v-168h-113v166q-261 14 -465 227l134 134q20 -27 48 -55.5t70 -60.5t98 -56t115 -31v510q-434 68 -434 381q0 108 60.5 196.5t158.5 139t215 59.5v168h113v-168q263 -21 430 -203 l-123 -123q-46 62 -130 107.5t-177 58.5v-454q230 -40 350.5 -138.5t120.5 -273.5zM526 815v-2v434q-100 -12 -171.5 -72.5t-71.5 -160.5q0 -75 56.5 -121.5t186.5 -77.5zM922 371q0 157 -283 231v-485q124 15 203.5 79t79.5 175z" />
<glyph unicode="%" horiz-adv-x="1509" d="M731 1061q0 -142 -95.5 -242t-236.5 -100t-236 100t-95 242q0 146 94.5 246t236.5 100t237 -100t95 -246zM1253 1366l-874 -1366h-119l875 1366h118zM1440 301v2q0 -144 -94.5 -244t-235.5 -100q-143 0 -237.5 99.5t-94.5 242.5q0 146 94.5 246t237.5 100 q141 0 235.5 -100t94.5 -246zM618 1061q0 109 -60 181.5t-159 72.5t-159 -72.5t-60 -181.5q0 -107 60 -179.5t159 -72.5t159 72.5t60 179.5zM1327 301q0 110 -59.5 183t-157.5 73q-99 0 -159 -72.5t-60 -181.5t60 -181.5t159 -72.5q97 0 157 72.5t60 179.5z" />
<glyph unicode="&#x26;" horiz-adv-x="1323" d="M1294 0h-233q-44 49 -119 131q-175 -172 -416 -172q-82 0 -158 25t-138.5 72t-100 124.5t-37.5 173.5q0 261 309 422q-114 165 -114 293q0 65 23 124.5t66 108t114 77t159 28.5q144 0 226.5 -81.5t82.5 -213.5q0 -109 -86.5 -205.5t-232.5 -171.5q7 -9 21.5 -26.5 t21.5 -26.5q86 -100 256 -289q62 108 113 264l155 -53q-73 -212 -155 -336q43 -46 124.5 -137t118.5 -131zM793 1102q0 67 -43 114.5t-105 47.5q-78 0 -126 -53.5t-48 -139.5q0 -85 80 -217q120 65 181 122t61 126zM834 250q-208 231 -291 338q-10 12 -29.5 36t-28.5 35 q-113 -63 -157.5 -127.5t-44.5 -158.5q0 -119 74.5 -187.5t168.5 -68.5q182 0 308 133z" />
<glyph unicode="'" horiz-adv-x="450" d="M358 1255q0 -10 -4 -30l-75 -328l-107 -2l-76 330q-4 20 -4 30q0 56 39 95t94 39t94 -39t39 -95z" />
<glyph unicode="(" horiz-adv-x="468" d="M469 -184l-100 -37q-277 411 -277 903q0 491 277 905l100 -37q-199 -411 -199 -868q0 -455 199 -866z" />
<glyph unicode=")" horiz-adv-x="468" d="M377 682q0 -492 -277 -903l-100 37q199 407 199 866q0 464 -199 868l100 37q277 -414 277 -905z" />
<glyph unicode="*" horiz-adv-x="684" d="M627 1014l-58 -99l-180 117l10 -213h-112l10 213l-180 -117l-56 99l191 98l-191 100l56 95l180 -115l-10 215h112l-10 -215l180 115l58 -95l-193 -100z" />
<glyph unicode="+" horiz-adv-x="1046" d="M987 446v-2l-401 2v-446h-125v446l-402 -2v115l402 -2v432h125v-432l401 2v-113z" />
<glyph unicode="," horiz-adv-x="450" d="M358 102q0 -94 -40.5 -178t-118.5 -186l-84 69q5 6 22 27.5t23 29t19.5 25.5t19.5 27.5t14 24t12 26.5t6 23q-20 -7 -47 0q-40 9 -66 45t-26 82q0 55 39 94t94 39q56 0 94.5 -42t38.5 -106z" />
<glyph unicode="-" horiz-adv-x="614" d="M553 414h-492v164h492v-164z" />
<glyph unicode="." horiz-adv-x="450" d="M358 117q0 -55 -39 -94t-94 -39t-94 39t-39 94q0 54 39 93.5t94 39.5t94 -39.5t39 -93.5z" />
<glyph unicode="/" horiz-adv-x="598" d="M598 1407l-485 -1448h-113l485 1448h113z" />
<glyph unicode="0" d="M1143 682q0 -98 -17.5 -195.5t-59 -194t-102.5 -169.5t-155 -118.5t-209 -45.5t-209 45.5t-155 118.5t-102.5 169.5t-59 194t-17.5 195.5q0 99 17.5 196.5t59 194.5t102.5 170t155 118.5t209 45.5t209 -45.5t155 -118.5t102.5 -170t59 -194.5t17.5 -196.5zM958 682 q0 78 -10.5 153t-37 151.5t-66 133.5t-102.5 93t-142 36t-142.5 -36t-103 -93t-65.5 -133.5t-36.5 -151.5t-10.5 -153q0 -77 10.5 -152t36.5 -151t65.5 -133t103 -93t142.5 -36t142 36t102.5 93t66 133t37 151t10.5 152z" />
<glyph unicode="1" d="M793 0h-185v1116l-170 -196l-125 124l322 322h158v-1366z" />
<glyph unicode="2" d="M1096 0h-969v137q365 344 590 543q76 66 134 152.5t58 156.5q0 66 -25 117.5t-67.5 82t-94 45.5t-108.5 15q-107 0 -209.5 -49.5t-148.5 -120.5l-119 117q62 93 198 152t279 59q97 0 180.5 -22.5t151 -68t106 -124t38.5 -182.5q0 -56 -18 -113.5t-45 -104t-64.5 -93 t-70.5 -78.5t-69 -62q-99 -84 -210 -184t-173 -159l-61 -58h717v-158z" />
<glyph unicode="3" d="M1100 356q0 -176 -136.5 -286.5t-359.5 -110.5q-163 0 -296 64t-202 165l130 129q131 -200 368 -200q143 0 229.5 73.5t86.5 182.5q0 291 -474 256v153q68 -3 133.5 -2.5t123.5 15.5t101.5 39.5t69 70.5t25.5 109q0 75 -46 130t-111.5 80t-137.5 25q-107 0 -206.5 -52.5 t-145.5 -125.5l-125 125q61 93 197 152t280 59q93 0 176 -23t151 -67.5t108 -118.5t40 -168q0 -74 -35 -144t-106 -120.5t-162 -60.5q152 -17 238 -113t86 -236z" />
<glyph unicode="4" d="M1122 324h-196v-324h-178v324h-656v153l578 889h256v-885h196v-157zM748 481v721l-461 -721h461z" />
<glyph unicode="5" d="M1090 412q0 -87 -36 -169t-99.5 -145t-157.5 -101t-203 -38q-163 0 -296 64t-202 165l129 129q55 -83 155.5 -141.5t213.5 -58.5q77 0 138.5 25t99.5 67.5t57.5 94.5t19.5 110q0 66 -18 118t-48.5 86.5t-73 57.5t-89.5 33t-100 10q-199 0 -289 -135l-150 67v715h854v-158 h-673v-471q27 52 112.5 94.5t204.5 42.5q125 0 226.5 -54t163 -160.5t61.5 -247.5z" />
<glyph unicode="6" d="M1122 412q0 -87 -36 -169t-99 -145t-157 -101t-203 -38q-85 0 -158 22t-127 60.5t-97.5 93t-72 117t-47.5 135t-27 145.5t-8 150q0 107 21.5 210t68 196.5t113 164t163.5 112.5t212 42q119 0 218.5 -46.5t166.5 -125.5l-119 -119q-48 60 -117.5 96.5t-148.5 36.5 q-109 0 -189.5 -51t-125 -137.5t-65 -185.5t-20.5 -211q53 92 152.5 151t249.5 59q194 0 323 -125t129 -337zM944 414q0 81 -28.5 142t-76.5 95.5t-105 51t-122 16.5q-121 0 -214 -73t-119 -159q8 -51 20.5 -96.5t39.5 -98t63 -89.5t94.5 -61.5t130.5 -24.5 q146 0 231.5 88.5t85.5 208.5z" />
<glyph unicode="7" d="M1075 1202l-577 -1202h-215l608 1182h-785v184h969v-164z" />
<glyph unicode="8" d="M1087 356q0 -120 -72 -212.5t-183.5 -138.5t-239.5 -46q-129 0 -241 46t-183.5 138.5t-71.5 212.5q0 98 94.5 207t221.5 142q-79 19 -148 73t-108 122t-39 130q0 94 40 168t107.5 118.5t151 67.5t176.5 23t176.5 -23t151 -67.5t107.5 -118.5t40 -168q0 -96 -88 -196 t-207 -129q126 -33 220.5 -141.5t94.5 -207.5zM887 1014q0 61 -23.5 107.5t-65 73.5t-93.5 40.5t-113 13.5t-113 -13.5t-93.5 -40.5t-65 -73.5t-23.5 -107.5q0 -38 18 -71.5t49.5 -57.5t63 -42.5t69.5 -31.5t57.5 -19t37.5 -10q18 4 38 10t57.5 19t69.5 31.5t63 42.5 t49 57.5t18 71.5zM907 373q0 54 -40.5 103.5t-97.5 81t-103.5 50t-73.5 23.5q-27 -5 -74 -23.5t-104.5 -50t-98.5 -81t-41 -103.5q0 -120 92 -188t226 -68q133 0 224 67.5t91 188.5z" />
<glyph unicode="9" d="M1102 682q0 -107 -21.5 -209t-68 -195.5t-112.5 -164t-162.5 -112.5t-211.5 -42q-119 0 -218.5 46t-168.5 126l121 119q48 -61 117 -97t149 -36q87 0 157 34.5t114.5 91t74 133.5t42 157.5t12.5 168.5q-127 -210 -404 -210q-193 0 -322.5 125.5t-129.5 336.5q0 87 36 169 t99.5 145t158 101t203.5 38q99 0 181 -29t139.5 -81.5t100 -120.5t67 -151t36 -167.5t11.5 -175.5zM915 881q-9 51 -22 95.5t-39.5 97t-62.5 89t-94 61.5t-130 25q-146 0 -231.5 -88.5t-85.5 -206.5q0 -82 28 -143t76.5 -95t105 -50.5t120.5 -16.5q122 0 215.5 72.5 t119.5 159.5z" />
<glyph unicode=":" horiz-adv-x="450" d="M358 872q0 -56 -39 -94.5t-94 -38.5t-94 38.5t-39 94.5t39 95t94 39t94 -39t39 -95zM358 117q0 -55 -39 -94t-94 -39t-94 39t-39 94q0 54 39 93.5t94 39.5t94 -39.5t39 -93.5z" />
<glyph unicode=";" horiz-adv-x="450" d="M358 872q0 -56 -39 -94.5t-94 -38.5t-94 38.5t-39 94.5t39 95t94 39t94 -39t39 -95zM358 102q0 -94 -40 -177.5t-117 -186.5l-86 69q5 6 22 27.5t23 29t19.5 25.5t19.5 27.5t14 24t12 26.5t6 23q-20 -7 -47 0q-40 9 -66 45t-26 82q0 55 39 94t94 39q56 0 94.5 -42 t38.5 -106z" />
<glyph unicode="&#x3c;" horiz-adv-x="1046" d="M987 -27l-928 465v113l928 467v-131l-819 -393l819 -390v-131z" />
<glyph unicode="=" horiz-adv-x="1046" d="M987 684h-928v113h928v-113zM987 207h-928v112h928v-112z" />
<glyph unicode="&#x3e;" horiz-adv-x="1046" d="M987 438l-928 -465v131l818 390l-818 391v133l928 -467v-113z" />
<glyph unicode="?" horiz-adv-x="987" d="M938 1061q0 -126 -63.5 -201t-215.5 -153q-44 -23 -76 -62t-37 -86t44 -88l-123 -123q-61 48 -85.5 113t-14.5 126.5t45 115.5t86 85q158 92 204 143t46 134q0 88 -74 136t-176 48q-121 0 -193 -41.5t-137 -128.5l-123 123q40 45 77 76.5t91.5 63.5t126 48.5t158.5 16.5 q190 0 315 -95.5t125 -250.5zM608 117q0 -55 -38.5 -94t-92.5 -39q-55 0 -94 39t-39 94q0 54 38.5 93.5t92.5 39.5q55 0 94 -39.5t39 -93.5z" />
<glyph unicode="@" horiz-adv-x="1601" d="M1528 684q-12 -183 -116.5 -310.5t-242.5 -127.5q-77 0 -128 37.5t-54 109.5q-43 -68 -129.5 -109.5t-185.5 -41.5q-172 0 -262 127.5t-48 330.5q29 136 106 242t181 162.5t217 56.5q99 0 169 -41t83 -108l17 80h143l-129 -617q-11 -57 12 -89t60 -32q12 0 28.5 4 t47.5 23.5t56.5 51.5t50 97.5t34.5 153.5q20 172 -48.5 318.5t-205 231.5t-307.5 85q-173 0 -329.5 -85t-258.5 -231.5t-121 -318.5q-15 -130 21.5 -248t112 -203t187.5 -135.5t242 -50.5q191 0 367 111l49 -70q-200 -129 -426 -129q-197 0 -354 97t-235.5 264t-55.5 364 q22 196 139 362.5t295.5 263.5t374.5 97t349 -97t230 -262t64 -364zM1096 907v-2q-20 59 -77 97t-142 38q-131 0 -232 -97.5t-131 -240.5q-30 -144 28.5 -240.5t188.5 -96.5q87 0 160 37t117 96z" />
<glyph unicode="A" horiz-adv-x="1343" d="M1335 0h-213l-135 342h-639l-133 -342h-211l580 1366h170zM924 498l-254 649l-256 -649h510z" />
<glyph unicode="B" horiz-adv-x="1263" d="M1167 393q0 -181 -115 -287t-288 -106h-623v1366h594q173 0 289.5 -101.5t116.5 -271.5q0 -216 -203 -288q108 -31 168.5 -108t60.5 -204zM956 993q0 95 -61.5 155t-151.5 60h-424v-428h422q92 0 153.5 58.5t61.5 154.5zM983 393q0 104 -61 167t-152 63h-451v-465h451 q90 0 151.5 64.5t61.5 170.5z" />
<glyph unicode="C" horiz-adv-x="1386" d="M1343 201q-209 -242 -524 -242q-149 0 -282 54.5t-230 149t-154 230t-57 289.5q0 207 97 373.5t262 259t364 92.5q312 0 520 -238l-131 -125q-70 94 -170.5 149.5t-218.5 55.5q-113 0 -212 -41.5t-171 -115.5t-113.5 -180t-41.5 -230q0 -123 41.5 -229t113.5 -179.5 t171 -115t212 -41.5q119 0 220 55.5t173 151.5z" />
<glyph unicode="D" horiz-adv-x="1423" d="M1327 682q0 -140 -52.5 -266t-143.5 -217.5t-220 -145t-276 -53.5h-494v1366h494q195 0 354.5 -92t248.5 -248.5t89 -343.5zM1143 682q0 145 -65.5 265.5t-182 190.5t-260.5 70h-316v-1050h316q144 0 261 70t182 190t65 264z" />
<glyph unicode="E" horiz-adv-x="1155" d="M1065 0h-924v1366h924v-158h-746v-428h732v-157h-732v-463h746v-160z" />
<glyph unicode="F" horiz-adv-x="1110" d="M1065 1208h-746v-428h732v-157h-732v-623h-178v1366h924v-158z" />
<glyph unicode="G" horiz-adv-x="1460" d="M1364 186q-92 -108 -238.5 -167.5t-310.5 -59.5q-148 0 -280.5 54.5t-229 149t-153 230t-56.5 289.5q0 155 56.5 290.5t153 230.5t229 149.5t280.5 54.5q169 0 311 -63t238 -175l-131 -125q-68 91 -182.5 148t-235.5 57q-228 0 -381 -159t-153 -408q0 -164 70.5 -293.5 t192 -200.5t271.5 -71q102 0 200.5 35t170.5 98v293h-410v157h588v-514z" />
<glyph unicode="H" horiz-adv-x="1441" d="M1300 0h-178v625h-803v-625h-178v1366h178v-586h803v586h178v-1366z" />
<glyph unicode="I" horiz-adv-x="460" d="M319 0h-178v1366h178v-1366z" />
<glyph unicode="J" horiz-adv-x="964" d="M825 403q0 -191 -130.5 -317.5t-329.5 -126.5q-107 0 -202 45t-159 123l115 125q37 -61 104 -98t142 -37q123 0 203.5 81.5t80.5 204.5v963h176v-963z" />
<glyph unicode="K" horiz-adv-x="1210" d="M1204 0h-248l-503 590l-134 -144v-446h-178v1366h178v-680l584 680h246l-584 -651z" />
<glyph unicode="L" horiz-adv-x="1001" d="M956 0h-815v1366h178v-1208h637v-158z" />
<glyph unicode="M" horiz-adv-x="1624" d="M1479 0h-179v1130l-466 -1130h-50l-465 1130v-1130h-178v1366h271l397 -991l399 991h271v-1366z" />
<glyph unicode="N" horiz-adv-x="1441" d="M1292 0h-159l-814 1081v-1081h-178v1366h189l784 -1042v1042h178v-1366z" />
<glyph unicode="O" horiz-adv-x="1576" d="M1481 682q0 -148 -52.5 -281t-143.5 -230.5t-220.5 -154.5t-276.5 -57t-276.5 57t-220.5 154.5t-143 230.5t-52 281t52 281.5t143 231t220.5 155t276.5 57.5t276.5 -57.5t220.5 -155t143.5 -231t52.5 -281.5zM1296 682q0 159 -63.5 288t-180 204t-264.5 75t-264.5 -75 t-179.5 -204t-63 -288q0 -158 63 -286.5t179.5 -203.5t264.5 -75q147 0 264 75t180.5 203.5t63.5 286.5z" />
<glyph unicode="P" horiz-adv-x="1175" d="M1126 954q0 -178 -126.5 -293.5t-301.5 -115.5h-379v-545h-178v1366h557q173 0 300.5 -116t127.5 -296zM942 954q0 104 -76.5 179t-167.5 75h-379v-508l379 2q92 0 168 73.5t76 178.5z" />
<glyph unicode="Q" horiz-adv-x="1576" d="M1481 682q0 -138 -46 -264t-132 -225l147 -146l-109 -110l-153 151q-171 -129 -400 -129q-147 0 -276.5 57t-220.5 154.5t-143 230.5t-52 281t52 281.5t143 231t220.5 155t276.5 57.5t276.5 -57.5t220.5 -155t143.5 -231t52.5 -281.5zM1296 682q0 159 -63.5 288t-180 204 t-264.5 75t-264.5 -75t-179.5 -204t-63 -288q0 -158 63 -286.5t179.5 -203.5t264.5 -75q166 0 281 86l-174 174l106 110l181 -176q114 150 114 371z" />
<glyph unicode="R" horiz-adv-x="1220" d="M1147 0h-219l-355 545h-254v-545h-178v1366h557q113 0 210.5 -50.5t158.5 -146t61 -215.5q0 -87 -28 -158t-67.5 -113t-92 -73.5t-90.5 -44.5t-74 -20zM944 954q0 104 -75 179t-167 75h-383v-508l381 2q94 0 169 73.5t75 178.5z" />
<glyph unicode="S" horiz-adv-x="1208" d="M1112 379q0 -90 -33.5 -163.5t-87.5 -120t-125.5 -78.5t-143 -45t-144.5 -13q-297 0 -512 229l133 134q21 -30 53 -61.5t79.5 -66t112.5 -56t134 -21.5q94 0 170.5 26.5t127 86t50.5 143.5q0 96 -102.5 160.5t-295.5 95.5q-120 19 -205.5 55.5t-134 87t-70.5 109 t-22 129.5q0 114 68.5 206.5t178.5 141.5t235 49q167 0 290 -58t203 -147l-123 -123q-56 73 -158.5 121.5t-211.5 48.5q-70 0 -134.5 -24.5t-110.5 -79.5t-46 -131q0 -89 80 -139t272 -82q233 -40 353 -138.5t120 -275.5z" />
<glyph unicode="T" horiz-adv-x="1077" d="M1036 1208h-407v-1208h-176v1208h-406v158h989v-158z" />
<glyph unicode="U" horiz-adv-x="1409" d="M1268 492q0 -105 -38.5 -201t-109 -170t-178 -118t-237.5 -44t-238 44t-178.5 118t-109 170t-38.5 201v874h185v-874q0 -96 44.5 -180.5t133 -139.5t201.5 -55q86 0 158.5 32t119.5 85t73.5 120t26.5 138v874h185v-874z" />
<glyph unicode="V" horiz-adv-x="1337" d="M1335 1366l-581 -1366h-170l-580 1366h211l455 -1157l452 1157h213z" />
<glyph unicode="W" horiz-adv-x="1773" d="M1763 1366l-391 -1366h-192l-295 1051l-299 -1051h-193l-389 1366h195l290 -1112l299 1112h189l297 -1112l293 1112h196z" />
<glyph unicode="X" horiz-adv-x="1343" d="M1335 0h-245l-420 567l-420 -567h-246l553 700l-522 666h246l389 -524l389 524h246l-525 -664z" />
<glyph unicode="Y" horiz-adv-x="1290" d="M1280 1366l-549 -782v-584h-178v584l-549 782h232l405 -614l408 614h231z" />
<glyph unicode="Z" horiz-adv-x="1265" d="M1178 0h-1082v172l840 1036h-840v158h1067v-156l-854 -1052h869v-158z" />
<glyph unicode="[" horiz-adv-x="468" d="M436 -205h-358l-2 1778h358l2 -113h-246l-2 -1554h246z" />
<glyph unicode="\" horiz-adv-x="598" d="M598 -41h-113l-485 1448h113z" />
<glyph unicode="]" horiz-adv-x="468" d="M393 -205h-358v111h246v1554h-246v113h358v-1778z" />
<glyph unicode="^" horiz-adv-x="878" d="M840 682h-133l-269 573l-266 -573h-133l344 684h113z" />
<glyph unicode="_" d="M1202 -195h-1208v113h1208v-113z" />
<glyph unicode="`" horiz-adv-x="436" d="M438 1137h-159l-279 297h150z" />
<glyph unicode="a" horiz-adv-x="1081" d="M551 1020q180 0 286.5 -94.5t106.5 -239.5v-686h-164v117q-38 -70 -115.5 -107t-166.5 -37q-71 0 -140.5 20.5t-130 60t-98 108t-37.5 155.5q0 76 25 136.5t65.5 98.5t94.5 63.5t108.5 36t112.5 10.5q87 0 165.5 -37t116.5 -105v166q0 83 -68.5 141t-160.5 58 q-178 0 -309 -142l-107 109q68 69 146.5 108.5t138 49.5t131.5 10zM780 238v161q-34 60 -105 93.5t-149 33.5q-32 0 -66 -6t-70 -21t-64 -38t-46 -60.5t-18 -83.5q0 -57 26.5 -100t68.5 -65t84.5 -32.5t84.5 -10.5q77 0 148.5 34t105.5 95z" />
<glyph unicode="b" horiz-adv-x="1177" d="M1085 496q0 -116 -36 -214.5t-98.5 -165.5t-146.5 -105t-179 -38q-113 0 -202.5 47t-121.5 123l2 -143h-164l-2 1366h166l-2 -518q32 76 121.5 123t202.5 47q95 0 179 -37.5t146.5 -104.5t98.5 -165.5t36 -214.5zM915 496q0 164 -91 274.5t-240 110.5q-97 0 -171 -43.5 t-110 -110.5l-2 -463q38 -67 112.5 -111t170.5 -44q149 0 240 111t91 276z" />
<glyph unicode="c" horiz-adv-x="1028" d="M983 143q-100 -101 -191 -135.5t-198 -34.5q-142 0 -258 70.5t-180 190t-64 262.5q0 142 64 261.5t180 190t258 70.5q109 0 199.5 -33.5t189.5 -136.5l-109 -107q-68 75 -133.5 107.5t-146.5 32.5q-149 0 -240.5 -110.5t-91.5 -274.5t91.5 -275.5t240.5 -111.5 q81 0 146.5 33t133.5 110z" />
<glyph unicode="d" horiz-adv-x="1177" d="M1038 0h-164v143q-31 -76 -119.5 -123t-201.5 -47q-95 0 -179 37.5t-146.5 104.5t-99 166t-36.5 215q0 154 62.5 274t167 184t231.5 64q113 0 201.5 -47t119.5 -123v518h164v-1366zM874 264v463q-36 67 -109.5 110.5t-170.5 43.5q-150 0 -241 -110.5t-91 -274.5 t91 -275.5t241 -111.5q96 0 170 44t110 111z" />
<glyph unicode="e" horiz-adv-x="1187" d="M1096 432h-826q20 -140 112.5 -224.5t225.5 -84.5q205 0 322 129l108 -109q-168 -170 -430 -170q-107 0 -203 41.5t-164.5 111.5t-108.5 166.5t-40 203.5q0 142 64 261.5t180 190t258 70.5q143 0 259 -70t179.5 -189.5t63.5 -262.5v-64zM924 569v-2q-14 131 -103 222.5 t-227 91.5q-132 0 -221 -89.5t-107 -224.5z" />
<glyph unicode="f" horiz-adv-x="466" d="M688 1327l-78 -123q-53 60 -147 60q-72 0 -110 -42t-38 -126v-107h203v-135h-203v-854h-163v854h-164v135h164v107q0 139 87 221t224 82q75 0 127 -16t98 -56z" />
<glyph unicode="g" horiz-adv-x="1177" d="M1038 4q0 -111 -38.5 -195.5t-106 -134t-150 -74t-178.5 -24.5q-53 0 -98.5 6t-101 23t-111 53t-107.5 90l109 107q131 -142 309 -142q50 0 92.5 8t83.5 28.5t69.5 52.5t46 83.5t17.5 118.5v139q-31 -76 -119.5 -123t-201.5 -47q-95 0 -179 37.5t-146.5 104.5t-99 166 t-36.5 215q0 154 62.5 274t167 184t231.5 64q113 0 201.5 -47t119.5 -123v141h164v-985zM874 264v463q-36 67 -109.5 110.5t-170.5 43.5q-150 0 -241 -110.5t-91 -274.5t91 -275.5t241 -111.5q96 0 170 44t110 111z" />
<glyph unicode="h" horiz-adv-x="1110" d="M971 0h-164v645q0 115 -62.5 175.5t-158.5 60.5q-91 0 -156.5 -36t-128.5 -112l2 -733h-164l-2 1366h166l-2 -500q129 152 332 152q153 0 245.5 -98.5t92.5 -274.5v-645z" />
<glyph unicode="i" horiz-adv-x="440" d="M330 1270q0 -45 -32 -77t-77 -32t-77.5 32.5t-32.5 76.5t32 76t76 32q47 0 79 -31.5t32 -76.5zM301 0h2h-164l-2 989h166z" />
<glyph unicode="j" horiz-adv-x="440" d="M330 1270q0 -45 -32 -77t-77 -32t-77.5 32.5t-32.5 76.5t32 76t76 32q46 0 78.5 -32t32.5 -76zM301 -119q0 -140 -85.5 -222.5t-223.5 -82.5q-73 0 -124.5 17t-100.5 59l75 121q60 -60 150 -60q147 0 147 168l-2 1108h166z" />
<glyph unicode="k" horiz-adv-x="1038" d="M1036 0h-235l-348 438l-152 -141l2 -297h-164l-2 1366h166l-2 -870l490 493h245l-475 -446z" />
<glyph unicode="l" horiz-adv-x="440" d="M303 0h-164l-2 1366h164z" />
<glyph unicode="m" horiz-adv-x="1622" d="M1483 0h-164v645q0 236 -189 236q-118 0 -237 -148v-733h-164v645q0 236 -188 236q-71 0 -128.5 -41.5t-111.5 -106.5v-733h-164v989h164v-123q24 29 43 48.5t55.5 47t84.5 42t104 14.5q213 0 276 -187q131 187 316 187q149 0 226 -96.5t77 -276.5v-645z" />
<glyph unicode="n" horiz-adv-x="1110" d="M971 0h-164v645q0 115 -62.5 175.5t-158.5 60.5q-91 0 -156.5 -36t-128.5 -112v-733h-164v989h164v-123q129 152 332 152q153 0 245.5 -98.5t92.5 -274.5v-645z" />
<glyph unicode="o" horiz-adv-x="1187" d="M1096 496q0 -144 -63.5 -263t-179.5 -189.5t-259 -70.5q-142 0 -258 70.5t-180 190t-64 262.5q0 142 64 261.5t180 190t258 70.5q143 0 259 -70.5t179.5 -189.5t63.5 -262zM926 496q0 164 -91 274.5t-241 110.5q-149 0 -240.5 -110.5t-91.5 -274.5t91.5 -275.5 t240.5 -111.5q150 0 241 110.5t91 276.5z" />
<glyph unicode="p" horiz-adv-x="1177" d="M1085 496q0 -116 -36 -214.5t-98.5 -165.5t-146.5 -105t-179 -38q-113 0 -202.5 47t-121.5 123l2 -538h-164l-2 1384h166l-2 -141q32 76 121.5 123t202.5 47q95 0 179 -37.5t146.5 -104.5t98.5 -165.5t36 -214.5zM915 496q0 164 -91 274.5t-240 110.5q-97 0 -171 -43.5 t-110 -110.5l-2 -463q38 -67 112.5 -111t170.5 -44q149 0 240 111t91 276z" />
<glyph unicode="q" horiz-adv-x="1177" d="M1038 -395h-164v538q-31 -76 -119.5 -123t-201.5 -47q-95 0 -179 37.5t-146.5 104.5t-99 166t-36.5 215q0 154 62.5 274t167 184t231.5 64q113 0 201.5 -47t119.5 -123v141h164v-1384zM874 264v463q-36 67 -109.5 110.5t-170.5 43.5q-150 0 -241 -110.5t-91 -274.5 t91 -275.5t241 -111.5q96 0 170 44t110 111z" />
<glyph unicode="r" horiz-adv-x="681" d="M637 840q-90 13 -185 -13t-151 -94l2 -733h-164l-2 989h166l-2 -123q129 152 336 152v-178z" />
<glyph unicode="s" horiz-adv-x="970" d="M879 274q0 -144 -111 -222.5t-297 -78.5q-142 0 -236 44.5t-165 119.5l112 115q34 -48 117 -95.5t176 -47.5q102 0 171 41.5t69 119.5q0 68 -70 106.5t-213 61.5q-187 30 -263.5 104t-76.5 189q0 93 57.5 160t143 97t186.5 30q122 0 218 -43t155 -105l-107 -108 q-40 54 -112 85.5t-154 31.5q-94 0 -156.5 -34t-62.5 -102q0 -63 56.5 -95t197.5 -58q181 -31 273 -104.5t92 -211.5z" />
<glyph unicode="t" horiz-adv-x="585" d="M580 14q-38 -28 -75 -38.5t-97 -10.5q-74 0 -126.5 23.5t-79.5 64.5t-38.5 85.5t-11.5 97.5v618h-164v135h164v271h163v-271h203v-135h-203v-618q0 -53 23.5 -93.5t69.5 -40.5q76 0 106 41z" />
<glyph unicode="u" horiz-adv-x="1110" d="M971 0h-164v123q-127 -150 -330 -150q-154 0 -246 98t-92 273q0 645 -2 645h164q2 0 2 -645q0 -113 62.5 -174t158.5 -61q90 0 156 36t127 111v733h164v-989z" />
<glyph unicode="v" horiz-adv-x="1019" d="M1020 989l-416 -989h-188l-416 989h184l326 -831l326 831h184z" />
<glyph unicode="w" horiz-adv-x="1523" d="M1509 989l-321 -989h-164l-262 758l-264 -758h-162l-322 989h174l236 -790l276 790h123l277 -790l233 790h176z" />
<glyph unicode="x" horiz-adv-x="1077" d="M1028 0h-197l-292 406l-293 -406h-197l393 508l-372 481h198l271 -375l270 375h199l-373 -481z" />
<glyph unicode="y" horiz-adv-x="1019" d="M1020 989l-498 -1177q-56 -130 -147.5 -183t-245.5 -53l-2 137q62 0 106.5 11.5t74 34.5t47.5 48.5t34 63.5l41 94l-430 1024h184l326 -831l326 831h184z" />
<glyph unicode="z" horiz-adv-x="960" d="M877 0h-785v147l600 707h-600v135h776v-133l-610 -719h619v-137z" />
<glyph unicode="{" horiz-adv-x="512" d="M477 -205h-125q-95 0 -164 73t-69 183v447q0 60 -26.5 95.5t-78.5 35.5v110q52 0 78.5 35.5t26.5 95.5v447q0 111 69 183.5t164 72.5h125v-113h-123q-53 0 -88 -38.5t-35 -104.5v-447q0 -146 -94 -186q94 -40 94 -186v-447q0 -65 35.5 -105t87.5 -40h123v-111z" />
<glyph unicode="|" horiz-adv-x="395" d="M254 -41h-113v1448h113v-1448z" />
<glyph unicode="}" horiz-adv-x="512" d="M498 629q-52 0 -78.5 -35.5t-26.5 -95.5v-447q0 -110 -69 -183t-164 -73h-125v111h123q52 0 87.5 40t35.5 105v447q0 146 94 186q-94 40 -94 186v447q0 66 -35 104.5t-88 38.5h-123v113h125q95 0 164 -72.5t69 -183.5v-447q0 -60 26.5 -95.5t78.5 -35.5v-110z" />
<glyph unicode="~" horiz-adv-x="1241" d="M1186 1337q-9 -102 -56 -206.5t-120 -176t-148 -71.5q-33 0 -62.5 6.5t-54.5 22t-43.5 29t-39.5 39.5t-31.5 40t-30.5 44t-27 40q-58 81 -96.5 116t-81.5 35q-25 0 -57.5 -22.5t-66.5 -65t-62.5 -117.5t-38.5 -167l-115 26q10 102 57 207t120.5 177.5t148.5 72.5 q33 0 62 -7t54 -22.5t43.5 -29t40 -40t32 -40.5t30.5 -44.5t27 -39.5q59 -83 96 -117.5t80 -34.5q25 0 57.5 22.5t67 65.5t62.5 119t38 168z" />
<glyph unicode="&#xa1;" horiz-adv-x="450" d="M330 -367h-211l41 990h129zM92 883q0 54 39 93.5t94 39.5t94 -39.5t39 -93.5q0 -55 -39 -94t-94 -39t-94 39t-39 94z" />
<glyph unicode="&#xa2;" horiz-adv-x="1028" d="M983 143q-86 -87 -165.5 -124t-166.5 -44v-180h-110v180q-196 20 -322.5 168.5t-126.5 352.5t126 351t323 167v145h110v-143q87 -7 166.5 -44t165.5 -124l-106 -109q-112 121 -226 138v-764q115 20 226 137zM541 877q-127 -20 -203 -127t-76 -254q0 -148 76 -255 t203 -128v764z" />
<glyph unicode="&#xa3;" horiz-adv-x="1034" d="M1016 68q-39 -45 -110.5 -71t-155.5 -26q-62 0 -115.5 15t-86 33.5t-80 33.5t-99.5 15q-48 0 -90.5 -13t-63.5 -25t-72 -44l-69 157q143 53 194 115t51 164q0 52 -10 100h-272v113h225q-16 26 -50.5 73.5t-54.5 79t-37.5 88.5t-17.5 123q0 76 34.5 149t93.5 128t142.5 89 t176.5 34q132 0 242 -48t143 -141l-135 -84q-43 109 -250 109q-40 0 -80.5 -10.5t-82 -34t-67.5 -70t-26 -110.5q0 -63 18.5 -118t42 -89t55 -82t48.5 -86h276v-113h-246q5 -40 5 -51q0 -99 -32.5 -156t-107.5 -120q35 12 50.5 14t54.5 2q75 0 162 -38t139 -38q46 0 98 23 t72 53z" />
<glyph unicode="&#xa4;" horiz-adv-x="1058" d="M993 287l-71 -72l-117 117q-126 -99 -279 -99q-155 0 -278 99l-117 -117l-74 72l117 116q-96 126 -96 279q0 156 96 279l-117 116l74 74l117 -117q123 96 278 96q153 0 279 -96l117 117l71 -74l-116 -116q98 -121 98 -279q0 -155 -98 -279zM858 682q0 138 -97.5 236 t-234.5 98q-138 0 -235.5 -98t-97.5 -236q0 -137 97.5 -234.5t235.5 -97.5q136 0 234 98t98 234z" />
<glyph unicode="&#xa5;" horiz-adv-x="1290" d="M1280 1366l-391 -557h223v-113h-303l-78 -112v-99h381v-112h-381v-373h-178v373h-367v112h367v99l-80 112h-287v113h209l-391 557h232l405 -614l408 614h231z" />
<glyph unicode="&#xa6;" horiz-adv-x="395" d="M254 758h-113v649h113v-649zM254 -41h-113v649h113v-649z" />
<glyph unicode="&#xa7;" horiz-adv-x="1024" d="M1026 528q0 -68 -27.5 -131t-73.5 -111t-94.5 -83.5t-101.5 -61.5q180 -77 180 -262q0 -146 -110.5 -224.5t-296.5 -78.5q-141 0 -235.5 45.5t-166.5 120.5l113 113q35 -47 117.5 -95.5t175.5 -48.5q100 0 169.5 43t69.5 121q0 67 -68.5 105t-213.5 63 q-200 33 -331.5 154.5t-131.5 279.5q0 149 90 251.5t227 141.5q-105 39 -149.5 103t-44.5 153q0 93 57.5 160t143 97t186.5 30q122 0 219 -42.5t152 -104.5l-107 -107q-38 52 -110 83.5t-154 31.5q-95 0 -158 -33t-63 -102q0 -63 58 -96.5t198 -57.5q85 -14 152 -35 t130.5 -57t105.5 -84.5t67.5 -119.5t25.5 -161zM862 496q0 61 -21.5 111.5t-57 86t-88 64t-108.5 46.5t-124 32l-10 2q-86 -15 -146 -54.5t-89 -92.5t-40.5 -101.5t-11.5 -100.5q0 -57 33 -108t88.5 -87.5t121 -62t136.5 -38.5q30 -5 69 -15q104 39 176 123t72 195z" />
<glyph unicode="&#xa8;" horiz-adv-x="573" d="M573 1337q0 -44 -32 -76t-76 -32q-46 0 -78.5 32t-32.5 76q0 46 32.5 78.5t78.5 32.5q44 0 76 -32.5t32 -78.5zM219 1337q0 -44 -32 -76t-78 -32q-44 0 -76.5 32t-32.5 76q0 46 32.5 78.5t76.5 32.5q46 0 78 -32.5t32 -78.5z" />
<glyph unicode="&#xa9;" horiz-adv-x="1593" d="M1522 682q0 -196 -97 -363t-264 -264.5t-364 -97.5q-196 0 -363 97.5t-264.5 264.5t-97.5 363q0 197 97.5 364t264.5 264t363 97q197 0 364 -97t264 -264t97 -364zM1434 682q0 130 -50.5 247.5t-135.5 202.5t-203 135t-248 50q-129 0 -246.5 -50t-202.5 -135 t-135.5 -202.5t-50.5 -247.5q0 -129 50.5 -246.5t135.5 -202.5t202.5 -135.5t246.5 -50.5q130 0 248 50.5t203 135.5t135.5 202.5t50.5 246.5zM1116 389q-59 -68 -141.5 -107.5t-177.5 -39.5q-184 0 -311.5 125t-127.5 315q0 189 127.5 313.5t311.5 124.5q96 0 177 -37.5 t138 -103.5l-78 -78q-42 57 -103.5 89t-133.5 32q-135 0 -228.5 -96.5t-93.5 -243.5q0 -146 93.5 -242t228.5 -96q149 0 239 121z" />
<glyph unicode="&#xaa;" horiz-adv-x="673" d="M561 631h-444v82h444v-82zM344 1384q99 0 157 -51.5t58 -130.5v-377h-90v64q-21 -38 -63 -58t-91 -20q-54 0 -102.5 18.5t-84.5 62.5t-36 107q0 51 20.5 89.5t54 59t71 30.5t77.5 10q49 0 91 -20t63 -58v92q0 45 -37 77t-88 32q-100 0 -170 -78l-59 59q54 55 109.5 73.5 t119.5 18.5zM469 956v88q-18 33 -57 51.5t-82 18.5q-51 0 -97.5 -28t-46.5 -87q0 -41 26 -68t56.5 -36.5t61.5 -9.5q43 0 82 18.5t57 52.5z" />
<glyph unicode="&#xab;" horiz-adv-x="817" d="M819 129h-164l-327 369l327 362h164l-327 -362zM492 129h-164l-328 369l328 362h164l-328 -362z" />
<glyph unicode="&#xac;" horiz-adv-x="1191" d="M1196 586l-575 -420l24 266h-549v307h549l-24 265z" />
<glyph unicode="&#xad;" horiz-adv-x="614" d="M553 414h-492v164h492v-164z" />
<glyph unicode="&#xae;" horiz-adv-x="1593" d="M1522 682q0 -196 -97 -363t-264 -264.5t-364 -97.5q-196 0 -363 97.5t-264.5 264.5t-97.5 363q0 197 97.5 364t264.5 264t363 97q197 0 364 -97t264 -264t97 -364zM1434 682q0 130 -50.5 247.5t-135.5 202.5t-203 135t-248 50q-129 0 -246.5 -50t-202.5 -135 t-135.5 -202.5t-50.5 -247.5q0 -129 50.5 -246.5t135.5 -202.5t202.5 -135.5t246.5 -50.5q130 0 248 50.5t203 135.5t135.5 202.5t50.5 246.5zM1133 268h-142l-215 328h-147v-328h-111l-2 830h340q107 0 185.5 -71t78.5 -181q0 -52 -17.5 -96t-43 -71t-55.5 -46t-54.5 -27 t-40.5 -8zM1004 846q0 65 -45.5 108t-102.5 43l-227 2v-303h227q56 0 102 44t46 106z" />
<glyph unicode="&#xaf;" horiz-adv-x="811" d="M776 1239h-743v107h743v-107z" />
<glyph unicode="&#xb0;" horiz-adv-x="575" d="M528 1167q0 -100 -69.5 -169.5t-169.5 -69.5t-170 69.5t-70 169.5q0 99 70.5 169.5t169.5 70.5t169 -70.5t70 -169.5zM438 1167q0 62 -44 106t-105 44q-63 0 -106.5 -44t-43.5 -106q0 -63 43.5 -106t106.5 -43q62 0 105.5 43t43.5 106z" />
<glyph unicode="&#xb1;" horiz-adv-x="622" d="M477 1366v-1366h-184v1116l-170 -196l-125 124l321 322h158z" />
<glyph unicode="&#xb2;" horiz-adv-x="643" d="M598 672v-90h-553v80q209 196 338 309q44 39 77.5 88t33.5 88q0 74 -49.5 111.5t-120.5 37.5q-60 0 -118.5 -28.5t-86.5 -69.5l-66 68q34 53 111.5 85.5t159.5 32.5q118 0 194 -55t76 -170q0 -131 -152 -258q-56 -47 -119 -104.5t-98 -90.5l-35 -34h408z" />
<glyph unicode="&#xb3;" horiz-adv-x="643" d="M590 791q0 -100 -77 -163t-204 -63q-92 0 -167 36.5t-113 94.5l71 72q75 -115 209 -115q81 0 129.5 42.5t48.5 103.5q0 45 -20.5 77t-51.5 45t-67.5 21t-69.5 5.5t-57 -1.5v86q256 -16 256 131q0 62 -51.5 97.5t-116.5 35.5q-61 0 -116.5 -29.5t-81.5 -70.5l-72 70 q34 53 111 85.5t159 32.5q112 0 190.5 -54t78.5 -156q0 -67 -47 -122.5t-123 -64.5q86 -9 134 -63t48 -133z" />
<glyph unicode="&#xb4;" horiz-adv-x="436" d="M438 1434l-278 -297h-160l289 297h149z" />
<glyph unicode="&#xb6;" horiz-adv-x="919" d="M782 -205h-112v1667h-150v-1667h-112v1073q-146 0 -249.5 103.5t-103.5 249.5t103.5 249t249.5 103h374v-1778z" />
<glyph unicode="&#xb7;" horiz-adv-x="450" d="M358 662q0 -56 -39 -95t-94 -39t-94 39t-39 95t39 94.5t94 38.5t94 -38.5t39 -94.5z" />
<glyph unicode="&#xb8;" horiz-adv-x="413" d="M414 -221q0 -65 -57 -113.5t-154 -48.5q-60 0 -116 18.5t-87 40.5l47 103q77 -60 152 -60q52 0 77 16.5t25 41.5q0 38 -39.5 53t-83.5 -10l-67 39l61 164h84l-49 -123q29 13 64.5 13t67.5 -12.5t53.5 -44.5t21.5 -77z" />
<glyph unicode="&#xb9;" horiz-adv-x="643" d="M406 1366v-778h-105v635l-96 -111l-72 72l182 182h91z" />
<glyph unicode="&#xba;" horiz-adv-x="684" d="M600 631h-504v82h504v-82zM623 1102q0 -121 -78 -204t-197 -83t-197.5 83t-78.5 204q0 120 78.5 203.5t197.5 83.5t197 -83.5t78 -203.5zM530 1102q0 90 -49.5 150.5t-132.5 60.5t-132.5 -60.5t-49.5 -150.5q0 -92 49.5 -152.5t132.5 -60.5t132.5 60.5t49.5 152.5z" />
<glyph unicode="&#xbb;" horiz-adv-x="817" d="M492 498l-328 -369h-164l328 369l-328 362h164zM819 498l-327 -369h-164l327 369l-327 362h164z" />
<glyph unicode="&#xbc;" horiz-adv-x="1308" d="M944 1366h117l-873 -1366h-118zM299 1366v-778h-106v635l-97 -111l-69 72l182 182h90zM1225 276v-90h-113v-184h-100v184h-373v88l328 504h145v-502h113zM750 276h262v410z" />
<glyph unicode="&#xbd;" horiz-adv-x="1388" d="M944 1366h117l-873 -1366h-118zM299 1366v-778h-106v635l-97 -111l-69 72l182 182h90zM1286 90v-88h-549v76q207 196 334 307q43 38 76 87t33 89q0 73 -48.5 110.5t-117.5 37.5q-60 0 -118 -29t-85 -70l-68 68q35 52 112.5 85.5t158.5 33.5q116 0 192 -55t76 -169 q0 -129 -152 -256q-56 -47 -118.5 -104t-96.5 -90l-34 -33h405z" />
<glyph unicode="&#xbe;" horiz-adv-x="1497" d="M1169 1366h119l-874 -1366h-117zM1452 276v-90h-113v-184h-102v184h-373v88l328 504h147v-502h113zM975 276h262v410zM596 791q0 -100 -77 -163t-202 -63q-93 0 -168.5 36.5t-113.5 94.5l74 72q75 -115 208 -115q79 0 129 43t50 103q0 45 -20.5 77t-51.5 45t-68.5 21 t-70.5 5.5t-58 -1.5v86q256 -16 256 131q0 62 -51 97.5t-115 35.5q-61 0 -117 -29t-83 -71l-72 70q35 53 111.5 85.5t160.5 32.5q111 0 190 -54t79 -156q0 -67 -47 -122.5t-125 -64.5q86 -9 134 -63t48 -133z" />
<glyph unicode="&#xbf;" horiz-adv-x="987" d="M45 -61q0 126 64 202t215 152q45 23 77 61.5t37 85.5t-43 88l123 123q60 -48 84.5 -113t14 -126.5t-45.5 -115.5t-86 -85q-158 -92 -203.5 -143t-45.5 -134q0 -88 73.5 -136t175.5 -48q84 0 147 23t101 57t82 92l123 -123q-40 -45 -77 -76.5t-91.5 -63.5t-126 -48.5 t-158.5 -16.5q-190 0 -315 95.5t-125 249.5zM375 885q0 54 39 93.5t94 39.5q54 0 93.5 -39.5t39.5 -93.5q0 -55 -39.5 -94t-93.5 -39q-56 0 -94.5 39t-38.5 94z" />
<glyph unicode="&#xc0;" horiz-adv-x="1343" d="M1335 0h-213l-135 342h-639l-133 -342h-211l580 1366h170zM924 498l-254 649l-256 -649h510zM878 1493h-159l-279 297h150z" />
<glyph unicode="&#xc1;" horiz-adv-x="1343" d="M1335 0h-213l-135 342h-639l-133 -342h-211l580 1366h170zM924 498l-254 649l-256 -649h510zM884 1790l-278 -297h-160l289 297h149z" />
<glyph unicode="&#xc2;" horiz-adv-x="1343" d="M1335 0h-213l-135 342h-639l-133 -342h-211l580 1366h170zM924 498l-254 649l-256 -649h510zM893 1491h-133l-88 186l-84 -186h-133l164 297h110z" />
<glyph unicode="&#xc3;" horiz-adv-x="1343" d="M1335 0h-213l-135 342h-639l-133 -342h-211l580 1366h170zM924 498l-254 649l-256 -649h510zM1042 1772q-6 -53 -23 -105.5t-45 -99t-71 -75t-94 -28.5q-22 0 -40.5 2.5t-35 12t-25.5 13.5t-24 22t-18 21t-19.5 27t-17.5 25q-10 14 -23.5 34t-18 26.5t-13.5 15t-17 10.5 t-20 2q-53 0 -76.5 -49.5t-34.5 -161.5l-119 19q5 55 19.5 106.5t40 98t66.5 74.5t91 28q39 0 69.5 -9.5t55 -30.5t38 -37t34.5 -46q8 -11 19.5 -29t15.5 -24t12 -15.5t13.5 -12t13.5 -5t18 -2.5q53 0 76.5 49.5t34.5 161.5z" />
<glyph unicode="&#xc4;" horiz-adv-x="1343" d="M1335 0h-213l-135 342h-639l-133 -342h-211l580 1366h170zM924 498l-254 649l-256 -649h510zM960 1577q0 -44 -32 -76t-76 -32q-46 0 -78.5 32t-32.5 76q0 46 32.5 78.5t78.5 32.5q44 0 76 -32.5t32 -78.5zM606 1577q0 -44 -32 -76t-78 -32q-44 0 -76.5 32t-32.5 76 q0 46 32.5 78.5t76.5 32.5q46 0 78 -32.5t32 -78.5z" />
<glyph unicode="&#xc5;" horiz-adv-x="1343" d="M754 1366l581 -1366h-213l-135 342h-639l-133 -342h-211l580 1366h170zM414 498h510l-254 649zM866 1614q0 -86 -55 -144.5t-139 -58.5t-139.5 58.5t-55.5 144.5q0 84 55.5 142.5t139.5 58.5t139 -58.5t55 -142.5zM799 1614q0 63 -35 105t-92 42q-59 0 -94 -42t-35 -105 q0 -65 35 -107.5t94 -42.5q57 0 92 43t35 107z" />
<glyph unicode="&#xc6;" horiz-adv-x="1945" d="M1853 0h-921v340h-502l-209 -340h-221l885 1366h968v-158h-745v-428h733v-157h-733v-463h745v-160zM932 498v649l-402 -649h402z" />
<glyph unicode="&#xc7;" horiz-adv-x="1386" d="M1343 201q-209 -242 -524 -242q-149 0 -282 54.5t-230 149t-154 230t-57 289.5q0 207 97 373.5t262 259t364 92.5q312 0 520 -238l-131 -125q-70 94 -170.5 149.5t-218.5 55.5q-113 0 -212 -41.5t-171 -115.5t-113.5 -180t-41.5 -230q0 -123 41.5 -229t113.5 -179.5 t171 -115t212 -41.5q119 0 220 55.5t173 151.5zM1002 -221q0 -65 -57 -113.5t-154 -48.5q-60 0 -116 18.5t-87 40.5l47 103q77 -60 152 -60q52 0 77 16.5t25 41.5q0 38 -39.5 53t-83.5 -10l-67 39l61 164h84l-49 -123q29 13 64.5 13t67.5 -12.5t53.5 -44.5t21.5 -77z" />
<glyph unicode="&#xc8;" horiz-adv-x="1155" d="M1065 0h-924v1366h924v-158h-746v-428h732v-157h-732v-463h746v-160zM819 1493h-160l-278 297h149z" />
<glyph unicode="&#xc9;" horiz-adv-x="1155" d="M1065 0h-924v1366h924v-158h-746v-428h732v-157h-732v-463h746v-160zM809 1790l-278 -297h-160l289 297h149z" />
<glyph unicode="&#xca;" horiz-adv-x="1155" d="M1065 0h-924v1366h924v-158h-746v-428h732v-157h-732v-463h746v-160zM817 1491h-133l-88 186l-84 -186h-133l164 297h110z" />
<glyph unicode="&#xcb;" horiz-adv-x="1155" d="M1065 0h-924v1366h924v-158h-746v-428h732v-157h-732v-463h746v-160zM886 1577q0 -44 -32 -76t-76 -32q-46 0 -78.5 32t-32.5 76q0 46 32.5 78.5t78.5 32.5q44 0 76 -32.5t32 -78.5zM532 1577q0 -44 -32 -76t-78 -32q-44 0 -76.5 32t-32.5 76q0 46 32.5 78.5t76.5 32.5 q46 0 78 -32.5t32 -78.5z" />
<glyph unicode="&#xcc;" horiz-adv-x="460" d="M319 0h-178v1366h178v-1366zM449 1493h-160l-279 297h150z" />
<glyph unicode="&#xcd;" horiz-adv-x="460" d="M319 0h-178v1366h178v-1366zM450 1799l-278 -297h-160l289 297h149z" />
<glyph unicode="&#xce;" horiz-adv-x="460" d="M319 0h-178v1366h178v-1366zM449 1489h-134l-88 186l-84 -186h-133l164 297h111z" />
<glyph unicode="&#xcf;" horiz-adv-x="460" d="M319 0h-178v1366h178v-1366zM520 1577q0 -44 -32 -76t-76 -32q-46 0 -78.5 32t-32.5 76q0 46 32.5 78.5t78.5 32.5q44 0 76 -32.5t32 -78.5zM166 1577q0 -44 -32 -76t-78 -32q-44 0 -76.5 32t-32.5 76q0 46 32.5 78.5t76.5 32.5q46 0 78 -32.5t32 -78.5z" />
<glyph unicode="&#xd0;" horiz-adv-x="1423" d="M1327 682q0 -140 -52.5 -266t-143.5 -217.5t-220 -145t-276 -53.5h-494v649h-141v103h141v614h494q195 0 354.5 -92t248.5 -248.5t89 -343.5zM1143 682q0 145 -65.5 265.5t-182 190.5t-260.5 70h-316v-456h187v-103h-187v-491h316q144 0 261 70t182 190t65 264z" />
<glyph unicode="&#xd1;" horiz-adv-x="1441" d="M1292 0h-159l-814 1081v-1081h-178v1366h189l784 -1042v1042h178v-1366zM1081 1777q-8 -73 -34 -140t-79 -117t-120 -50q-22 0 -40.5 2.5t-35 12t-25.5 13.5t-24 22t-18 21t-19.5 27t-17.5 25q-9 13 -23 33.5t-18.5 26.5t-14 15t-17.5 11t-20 2q-53 0 -76 -49.5 t-34 -161.5l-119 19q5 55 19.5 106.5t40 98t66.5 74.5t91 28q39 0 69.5 -9.5t55 -30.5t38 -37t34.5 -46q8 -11 19.5 -29t15.5 -24t12 -15.5t13.5 -12t13.5 -5t18 -2.5q53 0 76 49.5t34 161.5z" />
<glyph unicode="&#xd2;" horiz-adv-x="1576" d="M1481 682q0 -148 -52.5 -281t-143.5 -230.5t-220.5 -154.5t-276.5 -57t-276.5 57t-220.5 154.5t-143 230.5t-52 281t52 281.5t143 231t220.5 155t276.5 57.5t276.5 -57.5t220.5 -155t143.5 -231t52.5 -281.5zM1296 682q0 159 -63.5 288t-180 204t-264.5 75t-264.5 -75 t-179.5 -204t-63 -288q0 -158 63 -286.5t179.5 -203.5t264.5 -75q147 0 264 75t180.5 203.5t63.5 286.5zM1009 1493h-159l-279 297h150z" />
<glyph unicode="&#xd3;" horiz-adv-x="1576" d="M1481 682q0 -148 -52.5 -281t-143.5 -230.5t-220.5 -154.5t-276.5 -57t-276.5 57t-220.5 154.5t-143 230.5t-52 281t52 281.5t143 231t220.5 155t276.5 57.5t276.5 -57.5t220.5 -155t143.5 -231t52.5 -281.5zM1296 682q0 159 -63.5 288t-180 204t-264.5 75t-264.5 -75 t-179.5 -204t-63 -288q0 -158 63 -286.5t179.5 -203.5t264.5 -75q147 0 264 75t180.5 203.5t63.5 286.5zM1011 1792l-278 -297h-160l289 297h149z" />
<glyph unicode="&#xd4;" horiz-adv-x="1576" d="M1481 682q0 -148 -52.5 -281t-143.5 -230.5t-220.5 -154.5t-276.5 -57t-276.5 57t-220.5 154.5t-143 230.5t-52 281t52 281.5t143 231t220.5 155t276.5 57.5t276.5 -57.5t220.5 -155t143.5 -231t52.5 -281.5zM1296 682q0 159 -63.5 288t-180 204t-264.5 75t-264.5 -75 t-179.5 -204t-63 -288q0 -158 63 -286.5t179.5 -203.5t264.5 -75q147 0 264 75t180.5 203.5t63.5 286.5zM1012 1493h-133l-88 186l-84 -186h-134l164 297h111z" />
<glyph unicode="&#xd5;" horiz-adv-x="1576" d="M1481 682q0 -148 -52.5 -281t-143.5 -230.5t-220.5 -154.5t-276.5 -57t-276.5 57t-220.5 154.5t-143 230.5t-52 281t52 281.5t143 231t220.5 155t276.5 57.5t276.5 -57.5t220.5 -155t143.5 -231t52.5 -281.5zM1296 682q0 159 -63.5 288t-180 204t-264.5 75t-264.5 -75 t-179.5 -204t-63 -288q0 -158 63 -286.5t179.5 -203.5t264.5 -75q147 0 264 75t180.5 203.5t63.5 286.5zM1159 1792q-8 -73 -34 -140t-79 -117t-120 -50q-22 0 -40.5 2.5t-35 12t-25.5 13.5t-24 22t-18 21t-19.5 27t-17.5 25q-9 13 -23 33.5t-18.5 26.5t-14 15t-17.5 11 t-20 2q-53 0 -76 -49.5t-34 -161.5l-119 19q5 55 19.5 106.5t40 98t66.5 74.5t91 28q39 0 69.5 -9.5t55 -30.5t38 -37t34.5 -46q8 -11 19.5 -29t15.5 -24t12 -15.5t13.5 -12t13.5 -5t18 -2.5q53 0 76 49.5t34 161.5z" />
<glyph unicode="&#xd6;" horiz-adv-x="1576" d="M1481 682q0 -148 -52.5 -281t-143.5 -230.5t-220.5 -154.5t-276.5 -57t-276.5 57t-220.5 154.5t-143 230.5t-52 281t52 281.5t143 231t220.5 155t276.5 57.5t276.5 -57.5t220.5 -155t143.5 -231t52.5 -281.5zM1296 682q0 159 -63.5 288t-180 204t-264.5 75t-264.5 -75 t-179.5 -204t-63 -288q0 -158 63 -286.5t179.5 -203.5t264.5 -75q147 0 264 75t180.5 203.5t63.5 286.5zM1071 1605q0 -44 -32 -76t-76 -32q-46 0 -78.5 32t-32.5 76q0 46 32.5 78.5t78.5 32.5q44 0 76 -32.5t32 -78.5zM717 1605q0 -44 -32 -76t-78 -32q-44 0 -76.5 32 t-32.5 76q0 46 32.5 78.5t76.5 32.5q46 0 78 -32.5t32 -78.5z" />
<glyph unicode="&#xd7;" horiz-adv-x="1046" d="M918 188l-89 -88l-315 316l-283 -283l-79 78l282 285l-305 305l88 88l305 -305l285 282l78 -78l-283 -284z" />
<glyph unicode="&#xd8;" horiz-adv-x="1576" d="M1483 682q0 -198 -89 -363.5t-248.5 -262.5t-354.5 -97q-199 0 -361 100l-39 -59h-119l76 119q-119 101 -185.5 248t-66.5 315q0 148 53 281.5t144.5 231t221 155t276.5 57.5q177 0 329 -84l27 43h117l-62 -96q132 -99 206.5 -253.5t74.5 -334.5zM1032 1188 q-109 61 -241 61q-224 0 -367 -162.5t-143 -404.5q0 -125 41.5 -234t117.5 -186zM1298 682q0 137 -48 253.5t-136 194.5l-598 -933q122 -80 275 -80q148 0 264.5 75t179.5 203.5t63 286.5z" />
<glyph unicode="&#xd9;" horiz-adv-x="1409" d="M1268 492q0 -105 -38.5 -201t-109 -170t-178 -118t-237.5 -44t-238 44t-178.5 118t-109 170t-38.5 201v874h185v-874q0 -96 44.5 -180.5t133 -139.5t201.5 -55q86 0 158.5 32t119.5 85t73.5 120t26.5 138v874h185v-874zM936 1499h-159l-279 297h150z" />
<glyph unicode="&#xda;" horiz-adv-x="1409" d="M1268 492q0 -105 -38.5 -201t-109 -170t-178 -118t-237.5 -44t-238 44t-178.5 118t-109 170t-38.5 201v874h185v-874q0 -96 44.5 -180.5t133 -139.5t201.5 -55q86 0 158.5 32t119.5 85t73.5 120t26.5 138v874h185v-874zM921 1790l-278 -297h-160l289 297h149z" />
<glyph unicode="&#xdb;" horiz-adv-x="1409" d="M1268 492q0 -105 -38.5 -201t-109 -170t-178 -118t-237.5 -44t-238 44t-178.5 118t-109 170t-38.5 201v874h185v-874q0 -96 44.5 -180.5t133 -139.5t201.5 -55q86 0 158.5 32t119.5 85t73.5 120t26.5 138v874h185v-874zM915 1495h-133l-88 186l-84 -186h-133l164 297h111 z" />
<glyph unicode="&#xdc;" horiz-adv-x="1409" d="M1268 492q0 -105 -38.5 -201t-109 -170t-178 -118t-237.5 -44t-238 44t-178.5 118t-109 170t-38.5 201v874h185v-874q0 -96 44.5 -180.5t133 -139.5t201.5 -55q86 0 158.5 32t119.5 85t73.5 120t26.5 138v874h185v-874zM989 1577q0 -44 -32 -76.5t-76 -32.5 q-46 0 -78.5 32.5t-32.5 76.5q0 46 32.5 78.5t78.5 32.5q44 0 76 -32.5t32 -78.5zM635 1577q0 -44 -32.5 -76.5t-78.5 -32.5q-44 0 -76 32.5t-32 76.5q0 46 32 78.5t76 32.5q46 0 78.5 -32.5t32.5 -78.5z" />
<glyph unicode="&#xdd;" horiz-adv-x="1290" d="M1280 1366l-549 -782v-584h-178v584l-549 782h232l405 -614l408 614h231zM852 1790l-278 -297h-160l289 297h149z" />
<glyph unicode="&#xde;" horiz-adv-x="1175" d="M1126 711q0 -178 -126.5 -294t-301.5 -116h-379v-301h-178v1366h178v-244h379q112 0 209.5 -50t158 -145.5t60.5 -215.5zM942 711q0 104 -76.5 180t-167.5 76h-379v-508h379q91 0 167.5 74t76.5 178z" />
<glyph unicode="&#xdf;" horiz-adv-x="1234" d="M1186 274q0 -146 -110.5 -223.5t-297.5 -77.5q-142 0 -236 44.5t-165 119.5l112 113q35 -47 117.5 -94t175.5 -47q102 0 171 41.5t69 119.5q0 68 -70 106.5t-213 61.5q-187 30 -263.5 104t-76.5 189q0 84 45 145t123 97q85 38 121.5 71t36.5 82q0 65 -51.5 101.5 t-136.5 36.5q-38 0 -77 -12t-75.5 -35.5t-60 -66t-23.5 -95.5v-1055h-164v1055q0 141 118.5 242.5t281.5 101.5q154 0 245.5 -72t91.5 -190q0 -30 -3.5 -55.5t-14 -47.5t-19 -38.5t-29 -35t-33.5 -29.5t-42.5 -28.5t-45 -26t-52.5 -28.5q-70 -39 -70 -107q0 -63 57.5 -95 t198.5 -56q181 -31 273 -104.5t92 -211.5z" />
<glyph unicode="&#xe0;" horiz-adv-x="1081" d="M551 1020q180 0 286.5 -94.5t106.5 -239.5v-686h-164v117q-38 -70 -115.5 -107t-166.5 -37q-71 0 -140.5 20.5t-130 60t-98 108t-37.5 155.5q0 76 25 136.5t65.5 98.5t94.5 63.5t108.5 36t112.5 10.5q87 0 165.5 -37t116.5 -105v166q0 83 -68.5 141t-160.5 58 q-178 0 -309 -142l-107 109q68 69 146.5 108.5t138 49.5t131.5 10zM780 238v161q-34 60 -105 93.5t-149 33.5q-32 0 -66 -6t-70 -21t-64 -38t-46 -60.5t-18 -83.5q0 -57 26.5 -100t68.5 -65t84.5 -32.5t84.5 -10.5q77 0 148.5 34t105.5 95zM758 1137h-160l-279 297h150z" />
<glyph unicode="&#xe1;" horiz-adv-x="1081" d="M551 1020q180 0 286.5 -94.5t106.5 -239.5v-686h-164v117q-38 -70 -115.5 -107t-166.5 -37q-71 0 -140.5 20.5t-130 60t-98 108t-37.5 155.5q0 76 25 136.5t65.5 98.5t94.5 63.5t108.5 36t112.5 10.5q87 0 165.5 -37t116.5 -105v166q0 83 -68.5 141t-160.5 58 q-178 0 -309 -142l-107 109q68 69 146.5 108.5t138 49.5t131.5 10zM780 238v161q-34 60 -105 93.5t-149 33.5q-32 0 -66 -6t-70 -21t-64 -38t-46 -60.5t-18 -83.5q0 -57 26.5 -100t68.5 -65t84.5 -32.5t84.5 -10.5q77 0 148.5 34t105.5 95zM755 1434l-278 -297h-160l289 297 h149z" />
<glyph unicode="&#xe2;" horiz-adv-x="1081" d="M551 1020q180 0 286.5 -94.5t106.5 -239.5v-686h-164v117q-38 -70 -115.5 -107t-166.5 -37q-71 0 -140.5 20.5t-130 60t-98 108t-37.5 155.5q0 76 25 136.5t65.5 98.5t94.5 63.5t108.5 36t112.5 10.5q87 0 165.5 -37t116.5 -105v166q0 83 -68.5 141t-160.5 58 q-178 0 -309 -142l-107 109q68 69 146.5 108.5t138 49.5t131.5 10zM780 238v161q-34 60 -105 93.5t-149 33.5q-32 0 -66 -6t-70 -21t-64 -38t-46 -60.5t-18 -83.5q0 -57 26.5 -100t68.5 -65t84.5 -32.5t84.5 -10.5q77 0 148.5 34t105.5 95zM764 1137h-133l-88 186l-84 -186 h-133l164 297h110z" />
<glyph unicode="&#xe3;" horiz-adv-x="1081" d="M551 1020q180 0 286.5 -94.5t106.5 -239.5v-686h-164v117q-38 -70 -115.5 -107t-166.5 -37q-71 0 -140.5 20.5t-130 60t-98 108t-37.5 155.5q0 76 25 136.5t65.5 98.5t94.5 63.5t108.5 36t112.5 10.5q87 0 165.5 -37t116.5 -105v166q0 83 -68.5 141t-160.5 58 q-178 0 -309 -142l-107 109q68 69 146.5 108.5t138 49.5t131.5 10zM780 238v161q-34 60 -105 93.5t-149 33.5q-32 0 -66 -6t-70 -21t-64 -38t-46 -60.5t-18 -83.5q0 -57 26.5 -100t68.5 -65t84.5 -32.5t84.5 -10.5q77 0 148.5 34t105.5 95zM911 1427q-8 -73 -34 -140 t-79 -117t-120 -50q-22 0 -40.5 2.5t-35 12t-25.5 13.5t-24 22t-18 21t-19.5 27t-17.5 25q-9 13 -23 33.5t-18.5 26.5t-14 15t-17.5 11t-20 2q-53 0 -76 -49.5t-34 -161.5l-119 19q5 55 19.5 106.5t40 98t66.5 74.5t91 28q39 0 69.5 -9.5t55 -30.5t38 -37t34.5 -46 q8 -11 19.5 -29t15.5 -24t12 -15.5t13.5 -12t13.5 -5t18 -2.5q53 0 76 49.5t34 161.5z" />
<glyph unicode="&#xe4;" horiz-adv-x="1081" d="M551 1020q180 0 286.5 -94.5t106.5 -239.5v-686h-164v117q-38 -70 -115.5 -107t-166.5 -37q-71 0 -140.5 20.5t-130 60t-98 108t-37.5 155.5q0 76 25 136.5t65.5 98.5t94.5 63.5t108.5 36t112.5 10.5q87 0 165.5 -37t116.5 -105v166q0 83 -68.5 141t-160.5 58 q-178 0 -309 -142l-107 109q68 69 146.5 108.5t138 49.5t131.5 10zM780 238v161q-34 60 -105 93.5t-149 33.5q-32 0 -66 -6t-70 -21t-64 -38t-46 -60.5t-18 -83.5q0 -57 26.5 -100t68.5 -65t84.5 -32.5t84.5 -10.5q77 0 148.5 34t105.5 95zM823 1337q0 -44 -32 -76t-76 -32 q-46 0 -78.5 32t-32.5 76q0 46 32.5 78.5t78.5 32.5q44 0 76 -32.5t32 -78.5zM469 1337q0 -44 -32.5 -76t-78.5 -32q-44 0 -76 32t-32 76q0 46 32 78.5t76 32.5q46 0 78.5 -32.5t32.5 -78.5z" />
<glyph unicode="&#xe5;" horiz-adv-x="1081" d="M551 1020q180 0 286.5 -94.5t106.5 -239.5v-686h-164v117q-38 -70 -115.5 -107t-166.5 -37q-71 0 -140.5 20.5t-130 60t-98 108t-37.5 155.5q0 76 25 136.5t65.5 98.5t94.5 63.5t108.5 36t112.5 10.5q87 0 165.5 -37t116.5 -105v166q0 83 -68.5 141t-160.5 58 q-178 0 -309 -142l-107 109q68 69 146.5 108.5t138 49.5t131.5 10zM780 238v161q-34 60 -105 93.5t-149 33.5q-32 0 -66 -6t-70 -21t-64 -38t-46 -60.5t-18 -83.5q0 -57 26.5 -100t68.5 -65t84.5 -32.5t84.5 -10.5q77 0 148.5 34t105.5 95zM729 1270q0 -85 -54.5 -144 t-137.5 -59q-84 0 -139.5 59.5t-55.5 143.5q0 86 55.5 144.5t139.5 58.5t138 -58.5t54 -144.5zM664 1270q0 63 -35 106t-92 43q-58 0 -93.5 -43t-35.5 -106t35.5 -106.5t93.5 -43.5q57 0 92 43.5t35 106.5z" />
<glyph unicode="&#xe6;" horiz-adv-x="1865" d="M1776 432h-828q20 -140 112.5 -224.5t225.5 -84.5q207 0 324 127l106 -107q-51 -53 -108.5 -89t-115.5 -52.5t-105 -22.5t-101 -6q-119 0 -215 47t-160 130q-38 -64 -150.5 -120.5t-258.5 -56.5q-56 0 -111.5 12t-109 39t-94.5 66t-66 98t-25 129q0 76 25 136.5 t65.5 98.5t95 63.5t109 36t111.5 10.5q87 0 165.5 -37t116.5 -105v166q0 84 -68 141.5t-161 57.5q-178 0 -309 -142l-107 109q68 69 146.5 108.5t138 49.5t131.5 10q117 0 205.5 -53t136.5 -140q65 90 161 140.5t216 50.5q143 0 258.5 -70t179.5 -189.5t64 -262.5v-64z M1602 567q-13 131 -102 222.5t-226 91.5q-134 0 -223 -90t-105 -224h656zM784 238v161q-34 60 -105 93.5t-149 33.5q-42 0 -84.5 -10t-84.5 -32.5t-68.5 -65.5t-26.5 -101q0 -57 26.5 -100t68.5 -65t84.5 -32.5t84.5 -10.5q77 0 148.5 34t105.5 95z" />
<glyph unicode="&#xe7;" horiz-adv-x="1028" d="M983 143q-100 -101 -191 -135.5t-198 -34.5q-142 0 -258 70.5t-180 190t-64 262.5q0 142 64 261.5t180 190t258 70.5q109 0 199.5 -33.5t189.5 -136.5l-109 -107q-68 75 -133.5 107.5t-146.5 32.5q-149 0 -240.5 -110.5t-91.5 -274.5t91.5 -275.5t240.5 -111.5 q81 0 146.5 33t133.5 110zM795 -221q0 -65 -57 -113.5t-154 -48.5q-60 0 -116 18.5t-87 40.5l47 103q77 -60 152 -60q52 0 77 16.5t25 41.5q0 38 -39.5 53t-83.5 -10l-67 39l61 164h84l-49 -123q29 13 64.5 13t67.5 -12.5t53.5 -44.5t21.5 -77z" />
<glyph unicode="&#xe8;" horiz-adv-x="1187" d="M1096 432h-826q20 -140 112.5 -224.5t225.5 -84.5q205 0 322 129l108 -109q-168 -170 -430 -170q-107 0 -203 41.5t-164.5 111.5t-108.5 166.5t-40 203.5q0 142 64 261.5t180 190t258 70.5q143 0 259 -70t179.5 -189.5t63.5 -262.5v-64zM924 569v-2q-14 131 -103 222.5 t-227 91.5q-132 0 -221 -89.5t-107 -224.5zM811 1137h-160l-278 297h149z" />
<glyph unicode="&#xe9;" horiz-adv-x="1187" d="M1096 432h-826q20 -140 112.5 -224.5t225.5 -84.5q205 0 322 129l108 -109q-168 -170 -430 -170q-107 0 -203 41.5t-164.5 111.5t-108.5 166.5t-40 203.5q0 142 64 261.5t180 190t258 70.5q143 0 259 -70t179.5 -189.5t63.5 -262.5v-64zM924 569v-2q-14 131 -103 222.5 t-227 91.5q-132 0 -221 -89.5t-107 -224.5zM803 1434l-278 -297h-160l289 297h149z" />
<glyph unicode="&#xea;" horiz-adv-x="1187" d="M1096 432h-826q20 -140 112.5 -224.5t225.5 -84.5q205 0 322 129l108 -109q-168 -170 -430 -170q-107 0 -203 41.5t-164.5 111.5t-108.5 166.5t-40 203.5q0 142 64 261.5t180 190t258 70.5q143 0 259 -70t179.5 -189.5t63.5 -262.5v-64zM924 569v-2q-14 131 -103 222.5 t-227 91.5q-132 0 -221 -89.5t-107 -224.5zM817 1137h-133l-88 186l-84 -186h-133l164 297h110z" />
<glyph unicode="&#xeb;" horiz-adv-x="1187" d="M1096 432h-826q20 -140 112.5 -224.5t225.5 -84.5q205 0 322 129l108 -109q-168 -170 -430 -170q-107 0 -203 41.5t-164.5 111.5t-108.5 166.5t-40 203.5q0 142 64 261.5t180 190t258 70.5q143 0 259 -70t179.5 -189.5t63.5 -262.5v-64zM924 569v-2q-14 131 -103 222.5 t-227 91.5q-132 0 -221 -89.5t-107 -224.5zM877 1337q0 -44 -32.5 -76t-76.5 -32q-46 0 -78.5 32t-32.5 76q0 46 32.5 78.5t78.5 32.5q44 0 76.5 -32.5t32.5 -78.5zM522 1337q0 -44 -32 -76t-78 -32q-44 0 -76.5 32t-32.5 76q0 46 32.5 78.5t76.5 32.5q46 0 78 -32.5 t32 -78.5z" />
<glyph unicode="&#xec;" horiz-adv-x="440" d="M303 0h-164l-2 989h164zM438 1137h-159l-279 297h150z" />
<glyph unicode="&#xed;" horiz-adv-x="440" d="M303 0h-164l-2 989h164zM438 1434l-278 -297h-160l289 297h149z" />
<glyph unicode="&#xee;" horiz-adv-x="440" d="M303 0h-164l-2 989h164zM438 1137h-133l-88 186l-84 -186h-133l164 297h110z" />
<glyph unicode="&#xef;" horiz-adv-x="440" d="M303 0h-164l-2 989h164zM512 1337q0 -44 -32.5 -76t-76.5 -32q-46 0 -78 32t-32 76q0 46 32 78.5t78 32.5q44 0 76.5 -32.5t32.5 -78.5zM158 1337q0 -44 -32.5 -76t-78.5 -32q-44 0 -76 32t-32 76q0 46 32 78.5t76 32.5q46 0 78.5 -32.5t32.5 -78.5z" />
<glyph unicode="&#xf0;" horiz-adv-x="1177" d="M1204 1071h-166v-1071h-164v143q-31 -76 -119.5 -123t-201.5 -47q-95 0 -179 37.5t-146.5 104.5t-99 166t-36.5 215q0 154 62.5 274t167 184t231.5 64q113 0 201.5 -47t119.5 -123v223h-176v103h176v192h164v-192h166v-103zM874 264v463q-36 67 -109.5 110.5t-170.5 43.5 q-150 0 -241 -110.5t-91 -274.5t91 -275.5t241 -111.5q96 0 170 44t110 111z" />
<glyph unicode="&#xf1;" horiz-adv-x="1110" d="M971 0h-164v645q0 115 -62.5 175.5t-158.5 60.5q-91 0 -156.5 -36t-128.5 -112v-733h-164v989h164v-123q129 152 332 152q153 0 245.5 -98.5t92.5 -274.5v-645zM921 1427q-8 -73 -34 -140t-79 -117t-120 -50q-22 0 -40.5 2.5t-35 12t-25.5 13.5t-24 22t-18 21t-19.5 27 t-17.5 25q-9 13 -23 33.5t-18.5 26.5t-14 15t-17.5 11t-20 2q-53 0 -76 -49.5t-34 -161.5l-119 19q5 55 19.5 106.5t40 98t66.5 74.5t91 28q39 0 69.5 -9.5t55 -30.5t38 -37t34.5 -46q8 -11 19.5 -29t15.5 -24t12 -15.5t13.5 -12t13.5 -5t18 -2.5q53 0 76 49.5t34 161.5z " />
<glyph unicode="&#xf2;" horiz-adv-x="1187" d="M1096 496q0 -144 -63.5 -263t-179.5 -189.5t-259 -70.5q-142 0 -258 70.5t-180 190t-64 262.5q0 142 64 261.5t180 190t258 70.5q143 0 259 -70.5t179.5 -189.5t63.5 -262zM926 496q0 164 -91 274.5t-241 110.5q-149 0 -240.5 -110.5t-91.5 -274.5t91.5 -275.5 t240.5 -111.5q150 0 241 110.5t91 276.5zM805 1137h-160l-278 297h149z" />
<glyph unicode="&#xf3;" horiz-adv-x="1187" d="M1096 496q0 -144 -63.5 -263t-179.5 -189.5t-259 -70.5q-142 0 -258 70.5t-180 190t-64 262.5q0 142 64 261.5t180 190t258 70.5q143 0 259 -70.5t179.5 -189.5t63.5 -262zM926 496q0 164 -91 274.5t-241 110.5q-149 0 -240.5 -110.5t-91.5 -274.5t91.5 -275.5 t240.5 -111.5q150 0 241 110.5t91 276.5zM803 1434l-278 -297h-160l289 297h149z" />
<glyph unicode="&#xf4;" horiz-adv-x="1187" d="M1096 496q0 -144 -63.5 -263t-179.5 -189.5t-259 -70.5q-142 0 -258 70.5t-180 190t-64 262.5q0 142 64 261.5t180 190t258 70.5q143 0 259 -70.5t179.5 -189.5t63.5 -262zM926 496q0 164 -91 274.5t-241 110.5q-149 0 -240.5 -110.5t-91.5 -274.5t91.5 -275.5 t240.5 -111.5q150 0 241 110.5t91 276.5zM817 1137h-133l-88 186l-84 -186h-133l164 297h110z" />
<glyph unicode="&#xf5;" horiz-adv-x="1187" d="M1096 496q0 -144 -63.5 -263t-179.5 -189.5t-259 -70.5q-142 0 -258 70.5t-180 190t-64 262.5q0 142 64 261.5t180 190t258 70.5q143 0 259 -70.5t179.5 -189.5t63.5 -262zM926 496q0 164 -91 274.5t-241 110.5q-149 0 -240.5 -110.5t-91.5 -274.5t91.5 -275.5 t240.5 -111.5q150 0 241 110.5t91 276.5zM952 1427q-8 -73 -34 -140t-79 -117t-120 -50q-22 0 -40.5 2.5t-35 12t-25.5 13.5t-24 22t-18 21t-19.5 27t-17.5 25q-9 13 -23 33.5t-18.5 26.5t-14 15t-17.5 11t-20 2q-53 0 -76 -49.5t-34 -161.5l-119 19q5 55 19.5 106.5t40 98 t66.5 74.5t91 28q39 0 69.5 -9.5t55 -30.5t38 -37t34.5 -46q8 -11 19.5 -29t15.5 -24t12 -15.5t13.5 -12t13.5 -5t18 -2.5q53 0 76 49.5t34 161.5z" />
<glyph unicode="&#xf6;" horiz-adv-x="1187" d="M1096 496q0 -144 -63.5 -263t-179.5 -189.5t-259 -70.5q-142 0 -258 70.5t-180 190t-64 262.5q0 142 64 261.5t180 190t258 70.5q143 0 259 -70.5t179.5 -189.5t63.5 -262zM926 496q0 164 -91 274.5t-241 110.5q-149 0 -240.5 -110.5t-91.5 -274.5t91.5 -275.5 t240.5 -111.5q150 0 241 110.5t91 276.5zM872 1337q0 -44 -32 -76t-76 -32q-46 0 -78.5 32t-32.5 76q0 46 32.5 78.5t78.5 32.5q44 0 76 -32.5t32 -78.5zM518 1337q0 -44 -32 -76t-78 -32q-44 0 -76.5 32t-32.5 76q0 46 32.5 78.5t76.5 32.5q46 0 78 -32.5t32 -78.5z" />
<glyph unicode="&#xf7;" horiz-adv-x="1046" d="M633 926q0 -44 -32.5 -77.5t-76.5 -33.5q-45 0 -76.5 32.5t-31.5 78.5q0 45 31.5 76.5t76.5 31.5q44 0 76.5 -32t32.5 -76zM987 444v2l-928 -2v113l928 2v-115zM633 78q0 -44 -32.5 -76.5t-76.5 -32.5q-45 0 -76.5 32t-31.5 77t31.5 77.5t76.5 32.5q44 0 76.5 -32 t32.5 -78z" />
<glyph unicode="&#xf8;" horiz-adv-x="1187" d="M1098 496q0 -143 -64 -262.5t-180 -190t-258 -70.5q-159 0 -287 88l-47 -61h-119l95 123q-68 71 -106 168t-38 205q0 143 64 262.5t179.5 189.5t258.5 70q150 0 272 -80l39 51h119l-86 -108q75 -73 116.5 -173t41.5 -212zM778 823q-77 58 -182 58q-149 0 -240.5 -110.5 t-91.5 -274.5q0 -144 72 -248zM928 496q0 154 -82 262l-447 -580q82 -69 197 -69q150 0 241 111.5t91 275.5z" />
<glyph unicode="&#xf9;" horiz-adv-x="1110" d="M971 0h-164v123q-127 -150 -330 -150q-154 0 -246 98t-92 273q0 645 -2 645h164q2 0 2 -645q0 -113 62.5 -174t158.5 -61q90 0 156 36t127 111v733h164v-989zM776 1137h-160l-278 297h149z" />
<glyph unicode="&#xfa;" horiz-adv-x="1110" d="M971 0h-164v123q-127 -150 -330 -150q-154 0 -246 98t-92 273q0 645 -2 645h164q2 0 2 -645q0 -113 62.5 -174t158.5 -61q90 0 156 36t127 111v733h164v-989zM778 1434l-278 -297h-160l289 297h149z" />
<glyph unicode="&#xfb;" horiz-adv-x="1110" d="M971 0h-164v123q-127 -150 -330 -150q-154 0 -246 98t-92 273q0 645 -2 645h164q2 0 2 -645q0 -113 62.5 -174t158.5 -61q90 0 156 36t127 111v733h164v-989zM776 1137h-133l-88 186l-84 -186h-133l164 297h110z" />
<glyph unicode="&#xfc;" horiz-adv-x="1110" d="M971 0h-164v123q-127 -150 -330 -150q-154 0 -246 98t-92 273q0 645 -2 645h164q2 0 2 -645q0 -113 62.5 -174t158.5 -61q90 0 156 36t127 111v733h164v-989zM838 1337q0 -44 -32.5 -76t-76.5 -32q-46 0 -78.5 32t-32.5 76q0 46 32.5 78.5t78.5 32.5q44 0 76.5 -32.5 t32.5 -78.5zM483 1337q0 -44 -32 -76t-78 -32q-44 0 -76.5 32t-32.5 76q0 46 32.5 78.5t76.5 32.5q46 0 78 -32.5t32 -78.5z" />
<glyph unicode="&#xfd;" horiz-adv-x="1019" d="M1020 989l-498 -1177q-56 -130 -147.5 -183t-245.5 -53l-2 137q62 0 106.5 11.5t74 34.5t47.5 48.5t34 63.5l41 94l-430 1024h184l326 -831l326 831h184zM731 1434l-278 -297h-160l289 297h149z" />
<glyph unicode="&#xfe;" horiz-adv-x="1177" d="M1085 496q0 -116 -36 -214.5t-98.5 -165.5t-146.5 -105t-179 -38q-113 0 -202.5 47t-121.5 123l2 -538h-164l-2 1761h166l-2 -518q32 76 121.5 123t202.5 47q95 0 179 -37.5t146.5 -104.5t98.5 -165.5t36 -214.5zM915 496q0 164 -91 274.5t-240 110.5q-97 0 -171 -43.5 t-110 -110.5l-2 -463q38 -67 112.5 -111t170.5 -44q149 0 240 111t91 276z" />
<glyph unicode="&#xff;" horiz-adv-x="1019" d="M1020 989l-498 -1177q-56 -130 -147.5 -183t-245.5 -53l-2 137q62 0 106.5 11.5t74 34.5t47.5 48.5t34 63.5l41 94l-430 1024h184l326 -831l326 831h184zM809 1337q0 -44 -32 -76t-76 -32q-46 0 -78.5 32t-32.5 76q0 46 32.5 78.5t78.5 32.5q44 0 76 -32.5t32 -78.5z M455 1337q0 -44 -32 -76t-78 -32q-44 0 -76.5 32t-32.5 76q0 46 32.5 78.5t76.5 32.5q46 0 78 -32.5t32 -78.5z" />
<glyph unicode="&#x152;" horiz-adv-x="2252" d="M2193 0h-923v197q-82 -112 -204.5 -175t-277.5 -63q-195 0 -354.5 97t-248.5 262.5t-89 363.5t89 364t248.5 263.5t354.5 97.5q155 0 277.5 -63t204.5 -175v197h923v-158h-745v-428h731v-157h-731v-463h745v-160zM1270 391v582q-68 129 -192.5 202.5t-289.5 73.5 q-148 0 -264.5 -75t-179.5 -204t-63 -288q0 -158 63 -286.5t179.5 -203.5t264.5 -75q165 0 289.5 73t192.5 201z" />
<glyph unicode="&#x153;" horiz-adv-x="2019" d="M1929 432h-827q20 -140 112.5 -224.5t225.5 -84.5q206 0 323 127l107 -107q-52 -53 -109.5 -89t-115.5 -52.5t-104.5 -22.5t-100.5 -6q-137 0 -249.5 66t-178.5 178q-63 -113 -171.5 -178.5t-246.5 -65.5q-142 0 -258 70.5t-180 190t-64 262.5t64 262.5t179.5 189.5 t258.5 70q136 0 244.5 -65t171.5 -177q63 112 172 177t245 65q143 0 258.5 -70t179.5 -189.5t64 -262.5v-64zM1755 567q-13 131 -102 222.5t-226 91.5q-134 0 -222.5 -90t-104.5 -224h655zM926 496q0 164 -91.5 274.5t-240.5 110.5q-150 0 -241 -110.5t-91 -274.5t91 -275.5 t241 -111.5q149 0 240.5 111.5t91.5 275.5z" />
<glyph unicode="&#x178;" horiz-adv-x="1290" d="M1280 1366l-549 -782v-584h-178v584l-549 782h232l405 -614l408 614h231zM934 1577q0 -44 -32.5 -76.5t-76.5 -32.5q-45 0 -77.5 32t-32.5 77q0 46 32 78.5t78 32.5q44 0 76.5 -32.5t32.5 -78.5zM580 1577q0 -44 -32.5 -76.5t-78.5 -32.5q-44 0 -76.5 32.5t-32.5 76.5 q0 46 32.5 78.5t76.5 32.5q46 0 78.5 -32.5t32.5 -78.5z" />
<glyph unicode="&#x2c6;" horiz-adv-x="436" d="M438 1137h-133l-88 186l-84 -186h-133l164 297h110z" />
<glyph unicode="&#x2dc;" horiz-adv-x="733" d="M735 1427q-8 -73 -34 -140t-79 -117t-120 -50q-22 0 -40.5 2.5t-35 12t-25.5 13.5t-24 22t-18 21t-19.5 27t-17.5 25q-9 13 -23 33.5t-18.5 26.5t-14 15t-17.5 11t-20 2q-53 0 -76 -49.5t-34 -161.5l-119 19q5 55 19.5 106.5t40 98t66.5 74.5t91 28q39 0 69.5 -9.5 t55 -30.5t38 -37t34.5 -46q8 -11 19.5 -29t15.5 -24t12 -15.5t13.5 -12t13.5 -5t18 -2.5q53 0 76 49.5t34 161.5z" />
<glyph unicode="&#x2000;" horiz-adv-x="907" />
<glyph unicode="&#x2001;" horiz-adv-x="1815" />
<glyph unicode="&#x2002;" horiz-adv-x="907" />
<glyph unicode="&#x2003;" horiz-adv-x="1815" />
<glyph unicode="&#x2004;" horiz-adv-x="605" />
<glyph unicode="&#x2005;" horiz-adv-x="453" />
<glyph unicode="&#x2006;" horiz-adv-x="302" />
<glyph unicode="&#x2007;" horiz-adv-x="302" />
<glyph unicode="&#x2008;" horiz-adv-x="226" />
<glyph unicode="&#x2009;" horiz-adv-x="363" />
<glyph unicode="&#x200a;" horiz-adv-x="100" />
<glyph unicode="&#x2010;" horiz-adv-x="614" d="M553 414h-492v164h492v-164z" />
<glyph unicode="&#x2011;" horiz-adv-x="614" d="M553 414h-492v164h492v-164z" />
<glyph unicode="&#x2012;" horiz-adv-x="614" d="M553 414h-492v164h492v-164z" />
<glyph unicode="&#x2013;" horiz-adv-x="1214" d="M1153 414h-1092v164h1092v-164z" />
<glyph unicode="&#x2014;" horiz-adv-x="1705" d="M1645 414h-1584v164h1584v-164z" />
<glyph unicode="&#x2018;" horiz-adv-x="450" d="M358 1030q0 -56 -39 -94.5t-94 -38.5q-56 0 -94.5 41.5t-38.5 103.5q0 95 40.5 179.5t117.5 185.5l86 -70q-4 -5 -23 -27t-24 -29t-19.5 -25.5t-20 -27.5t-14.5 -23.5t-12.5 -26.5t-5.5 -23q4 3 19.5 3t27.5 -3q41 -9 67.5 -44.5t26.5 -80.5z" />
<glyph unicode="&#x2019;" horiz-adv-x="450" d="M358 1243q0 -94 -40.5 -178t-118.5 -186l-84 67q6 7 30.5 38t32 42t23 33.5t22 38.5t8.5 32q-20 -7 -47 0q-39 7 -65.5 43.5t-26.5 81.5q0 56 39 95t94 39q56 0 94.5 -41.5t38.5 -104.5z" />
<glyph unicode="&#x201a;" horiz-adv-x="450" d="M358 102q0 -94 -40.5 -178t-118.5 -186l-84 69q5 6 22 27.5t23 29t19.5 25.5t19.5 27.5t14 24t12 26.5t6 23q-20 -7 -47 0q-40 9 -66 45t-26 82q0 55 39 94t94 39q56 0 94.5 -42t38.5 -106z" />
<glyph unicode="&#x201c;" horiz-adv-x="808" d="M717 1030q0 -56 -38.5 -94.5t-94.5 -38.5t-94.5 41.5t-38.5 103.5q0 95 40 180t117 185l86 -70q-4 -5 -23 -27t-24 -29t-19.5 -25.5t-20 -27.5t-14.5 -23.5t-12.5 -26.5t-5.5 -23q4 3 20 3t28 -3q41 -9 67.5 -44.5t26.5 -80.5zM358 1028v2q0 -56 -39 -94.5t-94 -38.5 q-56 0 -94.5 41.5t-38.5 103.5q0 95 40.5 179.5t117.5 185.5l86 -70q-4 -5 -23 -27t-24 -29t-19.5 -25.5t-20 -27.5t-14.5 -23.5t-12.5 -26.5t-5.5 -23q4 3 19.5 3t27.5 -3q41 -9 67.5 -45t26.5 -82z" />
<glyph unicode="&#x201d;" horiz-adv-x="808" d="M717 1243q0 -94 -40.5 -178t-119.5 -186l-84 67q8 10 31 38.5t32 41t23.5 34t21.5 38t9 32.5q-20 -7 -47 0q-39 7 -65.5 43.5t-26.5 81.5q0 56 39 95t94 39q56 0 94.5 -41.5t38.5 -104.5zM358 1243q0 -94 -40.5 -178t-118.5 -186l-84 67q6 7 30.5 38t32 42t23 33.5 t22 38.5t8.5 32q-20 -7 -47 0q-39 7 -65.5 43.5t-26.5 81.5q0 56 39 95t94 39q56 0 94.5 -41.5t38.5 -104.5z" />
<glyph unicode="&#x201e;" horiz-adv-x="815" d="M717 100q0 -94 -40.5 -178t-119.5 -186l-84 69q7 8 22.5 27.5t23 28.5t20 25.5t19 27.5t14.5 25t12 26t6 23q-20 -7 -47 0q-40 9 -66 45t-26 82q0 54 39 93.5t94 39.5q56 0 94.5 -42t38.5 -106zM358 100q0 -94 -40.5 -178t-118.5 -186l-84 69q5 6 22 27.5t23 29 t19.5 25.5t19.5 27.5t14 24t12 26.5t6 23q-20 -7 -47 0q-40 9 -66 45t-26 82q0 54 39 93.5t94 39.5q56 0 94.5 -42t38.5 -106z" />
<glyph unicode="&#x2022;" horiz-adv-x="733" d="M635 584q0 -109 -78 -187t-188 -78t-188.5 78t-78.5 187q0 110 78.5 188t188.5 78t188 -78t78 -188z" />
<glyph unicode="&#x2026;" horiz-adv-x="2017" d="M465 117q0 -55 -38.5 -94t-94.5 -39t-94.5 39t-38.5 94q0 54 39 93.5t94 39.5t94 -39.5t39 -93.5zM1128 117q0 -55 -39 -94t-94 -39t-94 39t-39 94q0 54 39 93.5t94 39.5t94 -39.5t39 -93.5zM1792 117q0 -55 -39 -94t-94 -39t-94 39t-39 94q0 54 39 93.5t94 39.5 t94 -39.5t39 -93.5z" />
<glyph unicode="&#x202f;" horiz-adv-x="363" />
<glyph unicode="&#x2039;" horiz-adv-x="491" d="M492 129h-164l-328 369l328 362h164l-328 -362z" />
<glyph unicode="&#x203a;" horiz-adv-x="491" d="M492 498l-328 -369h-164l328 369l-328 362h164z" />
<glyph unicode="&#x205f;" horiz-adv-x="453" />
<glyph unicode="&#x2122;" horiz-adv-x="933" d="M862 915h-57v373l-154 -373h-16l-154 373v-373h-59v451h90l131 -328l131 328h88v-451zM348 1313h-127v-398h-59v398h-127v53h313v-53z" />
<glyph unicode="&#xe000;" horiz-adv-x="993" d="M0 993h993v-993h-993v993z" />
<glyph unicode="&#xfb01;" horiz-adv-x="921" d="M782 0h-164v989h164v-989zM801 1253l-103 -100q-72 111 -209 111q-75 0 -124.5 -43.5t-49.5 -124.5v-107h201v-135h-201v-854h-163v854h-164v135h164v107q0 137 98 220t239 83q202 0 312 -146z" />
<glyph unicode="&#xfb02;" horiz-adv-x="921" d="M782 0h-164v1200q-14 22 -63 43t-88 21q-152 0 -152 -168v-107h201v-135h-201v-854h-163v854h-164v135h164v107q0 139 83.5 221t217.5 82q48 0 102 -29.5t63 -58.5v55h164v-1366z" />
</font>
</defs>
</svg>
